name ./resultDataOpenSim/trcMotMarkerGrf/sub09/grf-12-02.mot
datacolumns 19
datarows 30
range 1.44400000 1.56000000
endheader

                time	     ground_force_vx	     ground_force_vy	     ground_force_vz	     ground_force_px	     ground_force_py	     ground_force_pz	   l_ground_force_vx	   l_ground_force_vy	   l_ground_force_vz	   l_ground_force_px	   l_ground_force_py	   l_ground_force_pz	     ground_torque_x	     ground_torque_y	     ground_torque_z	   l_ground_torque_x	   l_ground_torque_y	   l_ground_torque_z	
          1.44400000	        -29.39189671	        423.54755572	        -15.58087017	          1.04511594	          0.00000000	          0.04942294	          0.00000000	          0.00000000	          0.00000000	          0.00000000	          0.00000000	          0.00000000	          0.00000000	          2.74652632	          0.00000000	          0.00000000	          0.00000000	          0.00000000	
          1.44800000	        -31.58985915	        423.61159632	        -13.55409811	          1.04719370	          0.00000000	          0.04922213	          0.00000000	          0.00000000	          0.00000000	          0.00000000	          0.00000000	          0.00000000	          0.00000000	          2.93314416	          0.00000000	          0.00000000	          0.00000000	          0.00000000	
          1.45200000	        -34.01328800	        424.06138767	        -12.28400629	          1.04919448	          0.00000000	          0.04904733	          0.00000000	          0.00000000	          0.00000000	          0.00000000	          0.00000000	          0.00000000	          0.00000000	          3.08418758	          0.00000000	          0.00000000	          0.00000000	          0.00000000	
          1.45600000	        -35.77806782	        424.80670751	        -11.95535044	          1.05096820	          0.00000000	          0.04891325	          0.00000000	          0.00000000	          0.00000000	          0.00000000	          0.00000000	          0.00000000	          0.00000000	          3.16784202	          0.00000000	          0.00000000	          0.00000000	          0.00000000	
          1.46000000	        -36.20587382	        425.82816377	        -12.57712530	          1.05238688	          0.00000000	          0.04882211	          0.00000000	          0.00000000	          0.00000000	          0.00000000	          0.00000000	          0.00000000	          0.00000000	          3.16691200	          0.00000000	          0.00000000	          0.00000000	          0.00000000	
          1.46400000	        -34.99755735	        427.13779363	        -13.98916779	          1.05339956	          0.00000000	          0.04877070	          0.00000000	          0.00000000	          0.00000000	          0.00000000	          0.00000000	          0.00000000	          0.00000000	          3.08375129	          0.00000000	          0.00000000	          0.00000000	          0.00000000	
          1.46800000	        -32.28677119	        428.74719308	        -15.90837872	          1.05405382	          0.00000000	          0.04875383	          0.00000000	          0.00000000	          0.00000000	          0.00000000	          0.00000000	          0.00000000	          0.00000000	          2.93981488	          0.00000000	          0.00000000	          0.00000000	          0.00000000	
          1.47200000	        -28.57267973	        430.66792547	        -17.99687956	          1.05444970	          0.00000000	          0.04876281	          0.00000000	          0.00000000	          0.00000000	          0.00000000	          0.00000000	          0.00000000	          0.00000000	          2.77006599	          0.00000000	          0.00000000	          0.00000000	          0.00000000	
          1.47600000	        -24.57133989	        432.92578096	        -19.92651447	          1.05471275	          0.00000000	          0.04879012	          0.00000000	          0.00000000	          0.00000000	          0.00000000	          0.00000000	          0.00000000	          0.00000000	          2.61451379	          0.00000000	          0.00000000	          0.00000000	          0.00000000	
          1.48000000	        -21.02855756	        435.56454472	        -21.42923333	          1.05496885	          0.00000000	          0.04882117	          0.00000000	          0.00000000	          0.00000000	          0.00000000	          0.00000000	          0.00000000	          0.00000000	          2.50979030	          0.00000000	          0.00000000	          0.00000000	          0.00000000	
          1.48400000	        -18.53143047	        438.63503523	        -22.33368852	          1.05531193	          0.00000000	          0.04883334	          0.00000000	          0.00000000	          0.00000000	          0.00000000	          0.00000000	          0.00000000	          0.00000000	          2.48277211	          0.00000000	          0.00000000	          0.00000000	          0.00000000	
          1.48800000	        -17.36477052	        442.18135722	        -22.57894699	          1.05579474	          0.00000000	          0.04881142	          0.00000000	          0.00000000	          0.00000000	          0.00000000	          0.00000000	          0.00000000	          0.00000000	          2.54674977	          0.00000000	          0.00000000	          0.00000000	          0.00000000	
          1.49200000	        -17.44817350	        446.22875014	        -22.21143383	          1.05639412	          0.00000000	          0.04875090	          0.00000000	          0.00000000	          0.00000000	          0.00000000	          0.00000000	          0.00000000	          0.00000000	          2.69973612	          0.00000000	          0.00000000	          0.00000000	          0.00000000	
          1.49600000	        -18.36073290	        450.77162731	        -21.38438119	          1.05705516	          0.00000000	          0.04865826	          0.00000000	          0.00000000	          0.00000000	          0.00000000	          0.00000000	          0.00000000	          0.00000000	          2.92470653	          0.00000000	          0.00000000	          0.00000000	          0.00000000	
          1.50000000	        -19.43941841	        455.76869806	        -20.34975152	          1.05768446	          0.00000000	          0.04854831	          0.00000000	          0.00000000	          0.00000000	          0.00000000	          0.00000000	          0.00000000	          0.00000000	          3.19229738	          0.00000000	          0.00000000	          0.00000000	          0.00000000	
          1.50400000	        -19.93789429	        461.14847081	        -19.41446788	          1.05816647	          0.00000000	          0.04844762	          0.00000000	          0.00000000	          0.00000000	          0.00000000	          0.00000000	          0.00000000	          0.00000000	          3.46655539	          0.00000000	          0.00000000	          0.00000000	          0.00000000	
          1.50800000	        -19.22998914	        466.83449043	        -18.86746621	          1.05843010	          0.00000000	          0.04838290	          0.00000000	          0.00000000	          0.00000000	          0.00000000	          0.00000000	          0.00000000	          0.00000000	          3.71311453	          0.00000000	          0.00000000	          0.00000000	          0.00000000	
          1.51200000	        -16.99575364	        472.78725078	        -18.92092945	          1.05843345	          0.00000000	          0.04836585	          0.00000000	          0.00000000	          0.00000000	          0.00000000	          0.00000000	          0.00000000	          0.00000000	          3.90748568	          0.00000000	          0.00000000	          0.00000000	          0.00000000	
          1.51600000	        -13.30795889	        479.02813840	        -19.68184360	          1.05821042	          0.00000000	          0.04839709	          0.00000000	          0.00000000	          0.00000000	          0.00000000	          0.00000000	          0.00000000	          0.00000000	          4.04053961	          0.00000000	          0.00000000	          0.00000000	          0.00000000	
          1.52000000	         -8.59033905	        485.62250147	        -21.13383209	          1.05782706	          0.00000000	          0.04846228	          0.00000000	          0.00000000	          0.00000000	          0.00000000	          0.00000000	          0.00000000	          0.00000000	          4.11942155	          0.00000000	          0.00000000	          0.00000000	          0.00000000	
          1.52400000	         -3.48083271	        492.63256992	        -23.13304347	          1.05738826	          0.00000000	          0.04854003	          0.00000000	          0.00000000	          0.00000000	          0.00000000	          0.00000000	          0.00000000	          0.00000000	          4.16420235	          0.00000000	          0.00000000	          0.00000000	          0.00000000	
          1.52800000	          1.34634665	        500.08404324	        -25.44000853	          1.05700643	          0.00000000	          0.04861314	          0.00000000	          0.00000000	          0.00000000	          0.00000000	          0.00000000	          0.00000000	          0.00000000	          4.20214819	          0.00000000	          0.00000000	          0.00000000	          0.00000000	
          1.53200000	          5.35725535	        507.97448399	        -27.77592833	          1.05675156	          0.00000000	          0.04867126	          0.00000000	          0.00000000	          0.00000000	          0.00000000	          0.00000000	          0.00000000	          0.00000000	          4.26175670	          0.00000000	          0.00000000	          0.00000000	          0.00000000	
          1.53600000	          8.29037497	        516.28479239	        -29.87318039	          1.05664928	          0.00000000	          0.04870203	          0.00000000	          0.00000000	          0.00000000	          0.00000000	          0.00000000	          0.00000000	          0.00000000	          4.36782630	          0.00000000	          0.00000000	          0.00000000	          0.00000000	
          1.54000000	         10.20539271	        524.96177201	        -31.51171648	          1.05666915	          0.00000000	          0.04869771	          0.00000000	          0.00000000	          0.00000000	          0.00000000	          0.00000000	          0.00000000	          0.00000000	          4.53773092	          0.00000000	          0.00000000	          0.00000000	          0.00000000	
          1.54400000	         11.44440161	        533.90722559	        -32.54635908	          1.05676277	          0.00000000	          0.04866310	          0.00000000	          0.00000000	          0.00000000	          0.00000000	          0.00000000	          0.00000000	          0.00000000	          4.77866149	          0.00000000	          0.00000000	          0.00000000	          0.00000000	
          1.54800000	         12.52921408	        543.00967465	        -32.93128947	          1.05688091	          0.00000000	          0.04860940	          0.00000000	          0.00000000	          0.00000000	          0.00000000	          0.00000000	          0.00000000	          0.00000000	          5.08596572	          0.00000000	          0.00000000	          0.00000000	          0.00000000	
          1.55200000	         14.02315547	        552.19192295	        -32.74067279	          1.05696278	          0.00000000	          0.04854842	          0.00000000	          0.00000000	          0.00000000	          0.00000000	          0.00000000	          0.00000000	          0.00000000	          5.44325302	          0.00000000	          0.00000000	          0.00000000	          0.00000000	
          1.55600000	         16.38421836	        561.42417281	        -32.16344437	          1.05695417	          0.00000000	          0.04849332	          0.00000000	          0.00000000	          0.00000000	          0.00000000	          0.00000000	          0.00000000	          0.00000000	          5.82493858	          0.00000000	          0.00000000	          0.00000000	          0.00000000	
          1.56000000	         19.84656823	        570.69611870	        -31.46303744	          1.05683190	          0.00000000	          0.04845536	          0.00000000	          0.00000000	          0.00000000	          0.00000000	          0.00000000	          0.00000000	          0.00000000	          6.20113751	          0.00000000	          0.00000000	          0.00000000	          0.00000000	
